<svg width="560" height="79" viewBox="0 0 560 79" fill="none" xmlns="http://www.w3.org/2000/svg">
<mask id="mask0_28_35" style="mask-type:alpha" maskUnits="userSpaceOnUse" x="0" y="0" width="80" height="79">
<rect width="79.8377" height="79" fill="#D9D9D9"/>
</mask>
<g mask="url(#mask0_28_35)">
<path d="M44.2434 56.9459L28.9412 41.8042C28.6085 41.475 28.3729 41.1184 28.2343 40.7344C28.0957 40.3504 28.0264 39.9389 28.0264 39.5C28.0264 39.0611 28.0957 38.6497 28.2343 38.2657C28.3729 37.8816 28.6085 37.525 28.9412 37.1959L44.2434 22.0542C44.8533 21.4507 45.6295 21.149 46.572 21.149C47.5146 21.149 48.2907 21.4507 48.9006 22.0542C49.5105 22.6577 49.8154 23.4257 49.8154 24.3584C49.8154 25.291 49.5105 26.0591 48.9006 26.6625L35.927 39.5L48.9006 52.3375C49.5105 52.941 49.8154 53.7091 49.8154 54.6417C49.8154 55.5743 49.5105 56.3424 48.9006 56.9459C48.2907 57.5493 47.5146 57.8511 46.572 57.8511C45.6295 57.8511 44.8533 57.5493 44.2434 56.9459Z" fill="#FFEB32"/>
</g>
<mask id="mask1_28_35" style="mask-type:alpha" maskUnits="userSpaceOnUse" x="480" y="0" width="80" height="79">
<rect x="480.077" width="79.8377" height="79" fill="#D9D9D9"/>
</mask>
<g mask="url(#mask1_28_35)">
<path d="M509.018 56.9459C508.408 56.3424 508.103 55.5743 508.103 54.6417C508.103 53.7091 508.408 52.941 509.018 52.3375L521.992 39.5L509.018 26.6625C508.408 26.0591 508.103 25.291 508.103 24.3584C508.103 23.4257 508.408 22.6577 509.018 22.0542C509.628 21.4507 510.404 21.149 511.347 21.149C512.289 21.149 513.065 21.4507 513.675 22.0542L528.977 37.1959C529.31 37.525 529.546 37.8816 529.684 38.2657C529.823 38.6497 529.892 39.0611 529.892 39.5C529.892 39.9389 529.823 40.3504 529.684 40.7344C529.546 41.1184 529.31 41.475 528.977 41.8042L513.675 56.9459C513.065 57.5493 512.289 57.8511 511.347 57.8511C510.404 57.8511 509.628 57.5493 509.018 56.9459Z" fill="#FFEB32"/>
</g>
<path d="M107.717 36.1252C107.871 36.8979 107.923 37.722 107.923 38.4946C107.923 39.3703 107.82 40.1944 107.717 41.0185C106.635 48.5902 100.505 54.5136 92.9337 55.4408H92.8307H77.0177V33.7044H84.2289V48.2297H92.3671C96.3848 47.6116 99.6298 44.5211 100.454 40.5549C100.608 39.8853 100.66 39.2157 100.66 38.4946C100.66 37.8765 100.608 37.2069 100.505 36.5888C99.9904 34.2194 98.7026 32.1076 96.7453 30.6654C95.5607 29.7897 94.2214 29.1716 92.7792 28.8626C92.3156 28.7596 91.8006 28.7081 91.2855 28.6566H77.0177V21.4454L92.1611 21.4969C95.8182 21.7545 99.3723 23.2482 102.154 25.7206C105.193 28.399 107.15 32.1076 107.717 36.1252ZM108.481 53.432L119.658 33.2923L124.191 41.4306L116.825 54.7712L116.465 55.4408H107.399L108.481 53.432ZM145.67 53.432L146.752 55.4408H137.686L137.326 54.7712L130.527 42.5122L127.179 36.4858L127.076 36.2798L122.543 28.09L122.903 27.4204L125.839 22.0635L126.2 21.3424H127.951L128.26 22.0635L131.248 27.4204L145.67 53.432ZM183.571 21.909L190.937 35.1981L186.404 43.3364L175.278 23.1967L174.3 21.4454H183.314L183.571 21.909ZM204.329 21.4454H213.394L212.416 23.1967L194.851 55.4408H192.946L189.289 48.5387L193.821 40.4004L194.697 38.8552L196.191 36.1767L204.071 21.909L204.329 21.4454ZM218.615 21.3939H225.826V55.4408H218.615V21.3939ZM230.989 55.4408V36.7433L238.2 43.9545V55.4408H230.989ZM251.335 21.3939H258.546V55.4408H256.794L251.695 50.3415L243.145 41.7911L238.2 36.8464L230.989 29.6352V25.3085V22.0635V21.1879H232.74L251.335 39.7308V21.3939ZM288.797 41.8942H296.368L295.802 43.6969C294.72 47.0965 292.608 49.9809 289.724 52.1443C286.736 54.3076 283.234 55.4408 279.577 55.4408C275.456 55.4408 271.49 53.9986 268.348 51.2686C265.309 48.5902 263.249 44.9331 262.682 40.9155C262.579 40.0914 262.528 39.2157 262.528 38.3916C262.528 37.5675 262.579 36.7948 262.682 35.9707C263.249 31.9531 265.257 28.2445 268.348 25.5661C271.438 22.8361 275.456 21.3424 279.577 21.3424C283.337 21.3424 286.942 22.5271 289.93 24.7934C292.814 27.0083 294.978 30.1503 295.956 33.6528L296.471 35.3526H289.003L288.642 34.5285C287.097 30.9229 283.543 28.5535 279.577 28.5535C274.889 28.5535 270.82 31.8501 269.945 36.4343C269.79 37.1039 269.739 37.722 269.739 38.3916C269.739 39.0612 269.79 39.7823 269.945 40.4004C270.872 44.9331 274.941 48.2297 279.577 48.2297C283.337 48.2297 286.788 46.0663 288.436 42.6668L288.797 41.8942ZM302.215 21.3939H309.426V55.4408H302.215V21.3939ZM363.091 41.8942H370.663L370.096 43.6969C369.015 47.0965 366.903 49.9809 364.018 52.1443C361.031 54.3076 357.528 55.4408 353.871 55.4408C349.751 55.4408 345.784 53.9986 342.642 51.2686C339.603 48.5902 337.543 44.9331 336.977 40.9155C336.874 40.0914 336.822 39.2157 336.822 38.3916C336.822 37.5675 336.874 36.7948 336.977 35.9707C337.543 31.9531 339.552 28.2445 342.642 25.5661C345.733 22.8361 349.751 21.3424 353.871 21.3424C357.631 21.3424 361.237 22.5271 364.224 24.7934C367.109 27.0083 369.272 30.1503 370.251 33.6528L370.766 35.3526H363.297L362.937 34.5285C361.391 30.9229 357.837 28.5535 353.871 28.5535C349.184 28.5535 345.115 31.8501 344.239 36.4343C344.085 37.1039 344.033 37.722 344.033 38.3916C344.033 39.0612 344.085 39.7823 344.239 40.4004C345.166 44.9331 349.236 48.2297 353.871 48.2297C357.631 48.2297 361.082 46.0663 362.731 42.6668L363.091 41.8942ZM392.902 21.5484C402.225 21.5484 409.848 29.1716 409.848 38.4946C409.848 47.8691 402.225 55.4408 392.902 55.4408C383.528 55.4408 375.956 47.8691 375.956 38.4946C375.956 29.1716 383.528 21.5484 392.902 21.5484ZM402.74 38.4946C402.74 33.0863 398.311 28.6566 392.902 28.6566C387.442 28.6566 383.013 33.0863 383.013 38.4946C383.013 43.9545 387.442 48.3842 392.902 48.3842C398.311 48.3842 402.74 43.9545 402.74 38.4946ZM445.739 36.1252C445.893 36.8979 445.945 37.722 445.945 38.4946C445.945 39.3703 445.842 40.1944 445.739 41.0185C444.657 48.5902 438.528 54.5136 430.956 55.4408H430.853H415.04V33.7044H422.251V48.2297H430.389C434.407 47.6116 437.652 44.5211 438.476 40.5549C438.631 39.8853 438.682 39.2157 438.682 38.4946C438.682 37.8765 438.631 37.2069 438.528 36.5888C438.013 34.2194 436.725 32.1076 434.768 30.6654C433.583 29.7897 432.244 29.1716 430.801 28.8626C430.338 28.7596 429.823 28.7081 429.308 28.6566H415.04V21.4454L430.183 21.4969C433.84 21.7545 437.395 23.2482 440.176 25.7206C443.215 28.399 445.172 32.1076 445.739 36.1252ZM451.106 21.4454H481.496V28.6566H451.106V22.7846V21.4454ZM458.317 40.9155V48.2297H481.496V55.4408H451.106V49.5689V48.2297V33.6528L458.317 33.7044H478.457V40.9155H458.317Z" fill="#FFEB32"/>
</svg>
